<svg width="24" height="24" xmlns="http://www.w3.org/2000/svg" fill-rule="evenodd" clip-rule="evenodd" image-rendering="optimizeSpeed">
    <path
        d="M 13.5 21 c -0.3 0 -0.5 -0.2 -0.5 -0.5 s 0.2 -0.5 0.5 -0.5 s 0.5 0.2 0.5 0.5 s -0.2 0.5 -0.5 0.5 m 0 -2 c -0.8 0 -1.5 0.7 -1.5 1.5 s 0.7 1.5 1.5 1.5 s 1.5 -0.7 1.5 -1.5 s -0.7 -1.5 -1.5 -1.5 m -6 2 c -0.3 0 -0.5 -0.2 -0.5 -0.5 s 0.2 -0.5 0.5 -0.5 s 0.5 0.2 0.5 0.5 s -0.2 0.5 -0.5 0.5 m 0 -2 c -0.8 0 -1.5 0.7 -1.5 1.5 s 0.7 1.5 1.5 1.5 s 1.5 -0.7 1.5 -1.5 s -0.7 -1.5 -1.5 -1.5 m 16.5 -16 h -3 l -3.6 15 h -13.3 l -4.1 -13 h 19.5 l 0.7 -3 h 3.8 v 1 z m -22.6 3 l 3.4 11 h 11.8 l 2.7 -11 h -17.9 z" />
</svg>